<?xml version="1.0" encoding="iso-8859-1"?>
<!-- Generator: Adobe Illustrator 19.0.0, SVG Export Plug-In . SVG Version: 6.00 Build 0)  -->
<svg version="1.1" id="Capa_1" xmlns="http://www.w3.org/2000/svg" xmlns:xlink="http://www.w3.org/1999/xlink" x="0px" y="0px"
	 viewBox="0 0 512 512" style="enable-background:new 0 0 512 512;" xml:space="preserve">
<g>
	<path style="fill:#86D09A;" d="M426.291,204.804H324.267l-34.133,25.6H256l-34.133-25.6h-102.4l-34.133,25.6H42.667v179.2h42.667
		v17.067h136.533l34.133-25.6h34.133l34.133,25.6h102.025l48.017-42.667h29.158V247.471h-29.158L426.291,204.804z M231.006,376.077
		c-33.323,33.323-87.356,33.323-120.678,0s-33.323-87.356,0-120.678s87.356-33.323,120.678,0c16,16,24.994,37.709,24.994,60.339
		C256.026,338.377,247.031,360.094,231.006,376.077z M435.806,376.077c-33.323,33.323-87.356,33.323-120.678,0
		s-33.323-87.356,0-120.678s87.356-33.323,120.678,0c16,16,24.994,37.709,24.994,60.339
		C460.826,338.377,451.832,360.094,435.806,376.077z"/>
	<path style="fill:#86D09A;" d="M426.291,426.671H324.267l-34.133-25.6H256l-34.133,25.6H85.333v25.6h366.933
		c28.279,0,51.2-22.921,51.2-51.2v-17.067h-29.158L426.291,426.671z"/>
	<path style="fill:#86D09A;" d="M85.333,230.404l34.133-25.6h102.4l34.133,25.6h34.133l34.133-25.6h102.025l48.017,42.667h29.158
		v-17.067c0-28.279-22.921-51.2-51.2-51.2h-409.6v51.2H85.333z"/>
</g>
<g>
	<path style="fill:#FFAF46;" d="M346.615,335.987l10.752-2.15c-4.804-4.796-7.509-11.307-7.501-18.099l-9.122-6.076
		c-10.189-6.793-23.236-7.612-34.193-2.133l-16.418,8.209c-0.026,22.639,8.969,44.356,24.994,60.339l5.803-17.408
		C324.804,347.046,334.601,338.394,346.615,335.987z"/>
	<path style="fill:#FFAF46;" d="M355.217,286.886l2.15,10.752c4.796-4.804,11.307-7.509,18.099-7.501l6.076-9.122
		c6.793-10.189,7.612-23.236,2.133-34.193l-8.209-16.418c-22.639-0.026-44.356,8.969-60.339,24.994l17.408,5.803
		C344.158,265.075,352.811,274.871,355.217,286.886z"/>
	<path style="fill:#FFAF46;" d="M340.745,309.662l9.122,6.076c-0.009-6.793,2.697-13.303,7.501-18.099l-2.15-10.752
		c-2.406-12.015-11.059-21.811-22.682-25.685l-17.408-5.803c-16.026,15.983-25.02,37.7-24.994,60.339l16.418-8.209
		C317.508,302.05,330.556,302.869,340.745,309.662z"/>
	<path style="fill:#FFAF46;" d="M369.391,350.46l6.076-9.122c-6.793,0.009-13.303-2.697-18.099-7.501l-10.752,2.15
		c-12.015,2.406-21.811,11.059-25.685,22.682l-5.803,17.408c15.983,16.026,37.7,25.02,60.339,24.994l-8.209-16.418
		C361.779,373.696,362.598,360.649,369.391,350.46z"/>
	<path style="fill:#FFAF46;" d="M381.542,281.015l-6.076,9.122c6.793-0.009,13.303,2.697,18.099,7.501l10.752-2.15
		c12.015-2.406,21.811-11.059,25.685-22.682l5.803-17.408c-15.983-16.026-37.7-25.02-60.339-24.994l8.209,16.418
		C389.154,257.779,388.335,270.827,381.542,281.015z"/>
	<path style="fill:#FFAF46;" d="M395.716,344.589l-2.15-10.752c-4.796,4.804-11.307,7.509-18.099,7.501l-6.076,9.122
		c-6.793,10.189-7.612,23.236-2.133,34.193l8.209,16.418c22.639,0.026,44.356-8.969,60.339-24.994l-17.408-5.803
		C406.775,366.4,398.123,356.604,395.716,344.589z"/>
	<path style="fill:#FFAF46;" d="M410.189,321.813l-9.122-6.076c0.009,6.793-2.697,13.303-7.501,18.099l2.15,10.752
		c2.406,12.015,11.059,21.811,22.682,25.685l17.408,5.803c16.026-15.983,25.02-37.7,24.994-60.339l-16.418,8.209
		C433.425,329.425,420.378,328.606,410.189,321.813z"/>
	<path style="fill:#FFAF46;" d="M430.003,272.806c-3.874,11.622-13.67,20.275-25.685,22.682l-10.752,2.15
		c4.804,4.796,7.509,11.307,7.501,18.099l9.122,6.076c10.189,6.793,23.236,7.612,34.193,2.133l16.418-8.209
		c0.026-22.639-8.969-44.356-24.994-60.339L430.003,272.806z"/>
	<path style="fill:#FFAF46;" d="M357.367,297.638c-9.993,10.001-9.993,26.197,0,36.198l0,0c10.001,9.993,26.197,9.993,36.198,0l0,0
		c10.172-9.822,10.453-26.027,0.631-36.198s-26.027-10.453-36.198-0.631C357.786,297.212,357.572,297.425,357.367,297.638z"/>
	<path style="fill:#FFAF46;" d="M205.389,321.813l-9.122-6.076c0.009,6.793-2.697,13.303-7.501,18.099l2.15,10.752
		c2.406,12.015,11.059,21.811,22.682,25.685l17.408,5.803c16.026-15.983,25.02-37.7,24.994-60.339l-16.418,8.209
		C228.625,329.425,215.578,328.606,205.389,321.813z"/>
	<path style="fill:#FFAF46;" d="M225.203,272.806c-3.874,11.622-13.67,20.275-25.685,22.682l-10.752,2.15
		c4.804,4.796,7.509,11.307,7.501,18.099l9.122,6.076c10.189,6.793,23.236,7.612,34.193,2.133L256,315.738
		c0.026-22.639-8.969-44.356-24.994-60.339L225.203,272.806z"/>
	<path style="fill:#FFAF46;" d="M150.417,286.886l2.15,10.752c4.796-4.804,11.307-7.509,18.099-7.501l6.076-9.122
		c6.793-10.189,7.612-23.236,2.133-34.193l-8.209-16.418c-22.639-0.026-44.356,8.969-60.339,24.994l17.408,5.803
		C139.358,265.075,148.011,274.871,150.417,286.886z"/>
	<path style="fill:#FFAF46;" d="M190.916,344.589l-2.15-10.752c-4.796,4.804-11.307,7.509-18.099,7.501l-6.076,9.122
		c-6.793,10.189-7.612,23.236-2.133,34.193l8.209,16.418c22.639,0.026,44.356-8.969,60.339-24.994l-17.408-5.803
		C201.975,366.4,193.323,356.604,190.916,344.589z"/>
	<path style="fill:#FFAF46;" d="M135.945,309.662l9.122,6.076c-0.009-6.793,2.697-13.303,7.501-18.099l-2.15-10.752
		c-2.406-12.015-11.059-21.811-22.682-25.685l-17.408-5.803c-16.026,15.983-25.02,37.7-24.994,60.339l16.418-8.209
		C112.708,302.05,125.756,302.869,135.945,309.662z"/>
	<path style="fill:#FFAF46;" d="M176.742,281.015l-6.076,9.122c6.793-0.009,13.303,2.697,18.099,7.501l10.752-2.15
		c12.015-2.406,21.811-11.059,25.685-22.682l5.803-17.408c-15.983-16.026-37.7-25.02-60.339-24.994l8.209,16.418
		C184.354,257.779,183.535,270.827,176.742,281.015z"/>
	<path style="fill:#FFAF46;" d="M141.815,335.987l10.752-2.15c-4.804-4.796-7.509-11.307-7.501-18.099l-9.122-6.076
		c-10.189-6.793-23.236-7.612-34.193-2.133l-16.418,8.209c-0.026,22.639,8.969,44.356,24.994,60.339l5.803-17.408
		C120.004,347.046,129.801,338.394,141.815,335.987z"/>
	<path style="fill:#FFAF46;" d="M164.591,350.46l6.076-9.122c-6.793,0.009-13.303-2.697-18.099-7.501l-10.752,2.15
		c-12.015,2.406-21.811,11.059-25.685,22.682l-5.803,17.408c15.983,16.026,37.7,25.02,60.339,24.994l-8.209-16.418
		C156.979,373.696,157.798,360.649,164.591,350.46z"/>
	<path style="fill:#FFAF46;" d="M152.567,297.638c-9.993,10.001-9.993,26.197,0,36.198l0,0c9.993,9.993,26.206,9.993,36.198,0l0,0
		c10.172-9.822,10.453-26.027,0.631-36.198c-9.822-10.172-26.027-10.453-36.198-0.631
		C152.986,297.212,152.772,297.425,152.567,297.638z"/>
	<rect x="238.933" y="452.271" style="fill:#FFAF46;" width="34.133" height="34.133"/>
	<rect x="170.667" y="452.271" style="fill:#FFAF46;" width="34.133" height="34.133"/>
	<rect x="204.8" y="452.271" style="fill:#FFAF46;" width="34.133" height="34.133"/>
	<rect x="307.2" y="452.271" style="fill:#FFAF46;" width="34.133" height="34.133"/>
	<rect x="273.067" y="452.271" style="fill:#FFAF46;" width="34.133" height="34.133"/>
	<path style="fill:#FFAF46;" d="M247.467,179.204v-76.8H256l0,0h25.6l0,0h17.067c9.429,0,17.067,7.637,17.067,17.067v17.067
		c0,9.429-7.637,17.067-17.067,17.067c9.412,0.026,17.041,7.654,17.067,17.067v8.533h56.491c2.167-8.363,3.26-16.964,3.243-25.6
		c0-56.55-45.85-102.4-102.4-102.4s-102.4,45.85-102.4,102.4c-0.017,8.636,1.075,17.237,3.243,25.6H247.467z"/>
	<path style="fill:#FFAF46;" d="M298.667,153.604h-51.2v25.6h68.267v-8.533C315.708,161.259,308.079,153.63,298.667,153.604z"/>
	<path style="fill:#FFAF46;" d="M298.667,153.604c9.429,0,17.067-7.637,17.067-17.067v-17.067c0-9.429-7.637-17.067-17.067-17.067
		h-51.2v51.2H298.667z"/>
	<rect x="102.4" y="452.271" style="fill:#FFAF46;" width="34.133" height="34.133"/>
</g>
<rect x="17.067" y="298.671" style="fill:#58595B;" width="25.6" height="85.333"/>
<g>
	<path style="fill:#231F20;" d="M375.467,221.871c-51.84,0-93.867,42.027-93.867,93.867s42.027,93.867,93.867,93.867
		s93.867-42.027,93.867-93.867C469.274,263.923,427.281,221.931,375.467,221.871z M409.105,310.839
		c-0.341-2.5-0.964-4.958-1.86-7.322c14.455-3.337,26.129-13.943,30.848-28.006l0.939-2.816c7.62,11.247,12.1,24.337,12.971,37.897
		l-11.435,5.717c-8.218,4.096-18.005,3.49-25.651-1.596L409.105,310.839z M341.828,320.636c0.341,2.5,0.964,4.958,1.86,7.322
		c-14.455,3.337-26.129,13.943-30.848,28.006l-0.939,2.816c-7.62-11.247-12.1-24.337-12.971-37.897l11.435-5.717
		c8.218-4.113,18.005-3.499,25.651,1.596L341.828,320.636z M375.467,332.804c-9.429,0-17.067-7.637-17.067-17.067
		s7.637-17.067,17.067-17.067c9.429,0,17.067,7.637,17.067,17.067S384.896,332.804,375.467,332.804z M395.81,288.491
		c-2.014-1.536-4.198-2.842-6.502-3.891c7.842-12.578,8.602-28.322,1.997-41.591l-1.323-2.654
		c13.346,2.586,25.754,8.678,35.968,17.647l-4.045,12.109c-2.901,8.713-10.257,15.206-19.26,17.007L395.81,288.491z
		 M376.038,250.637c4.113,8.218,3.499,18.005-1.596,25.651l-3.874,5.811c-2.5,0.341-4.958,0.964-7.322,1.86
		c-3.345-14.447-13.952-26.129-28.006-30.857l-2.816-0.939c11.264-7.62,24.354-12.1,37.922-12.962L376.038,250.637z
		 M329.028,361.365c2.901-8.713,10.257-15.206,19.26-17.007l6.827-1.374c2.014,1.536,4.198,2.842,6.502,3.891
		c-7.842,12.578-8.602,28.322-1.997,41.591l1.323,2.654c-13.346-2.586-25.754-8.678-35.968-17.647L329.028,361.365z
		 M374.895,380.838c-4.113-8.218-3.499-18.005,1.596-25.651l3.874-5.811c2.5-0.341,4.958-0.964,7.322-1.86
		c3.345,14.447,13.952,26.129,28.006,30.857l2.816,0.939c-11.264,7.62-24.354,12.1-37.922,12.962L374.895,380.838z M317.722,265.263
		l12.109,4.036c8.713,2.901,15.206,10.257,17.007,19.26l1.374,6.827c-1.536,2.014-2.842,4.198-3.891,6.502
		c-12.578-7.834-28.322-8.593-41.591-1.997l-2.654,1.323c2.586-13.338,8.678-25.745,17.655-35.951L317.722,265.263z
		 M433.195,366.212l-12.109-4.036c-8.713-2.901-15.206-10.257-17.007-19.26l-1.374-6.827c1.536-2.014,2.85-4.198,3.9-6.511
		c12.561,7.893,28.322,8.653,41.583,2.005l2.654-1.323C448.256,343.599,442.172,356.006,433.195,366.212L433.195,366.212z"/>
	<path style="fill:#231F20;" d="M170.667,221.871c-51.84,0-93.867,42.027-93.867,93.867s42.027,93.867,93.867,93.867
		s93.867-42.027,93.867-93.867C264.474,263.923,222.481,221.931,170.667,221.871z M204.305,310.839
		c-0.341-2.5-0.964-4.958-1.86-7.322c14.455-3.337,26.129-13.943,30.848-28.006l0.939-2.816c7.62,11.247,12.1,24.337,12.971,37.897
		l-11.435,5.717c-8.218,4.096-18.005,3.49-25.651-1.596L204.305,310.839z M137.028,320.636c0.341,2.5,0.964,4.958,1.86,7.322
		c-14.455,3.337-26.129,13.943-30.848,28.006l-0.939,2.816c-7.62-11.247-12.1-24.337-12.971-37.897l11.435-5.717
		c8.218-4.113,18.005-3.499,25.651,1.596L137.028,320.636z M170.667,332.804c-9.429,0-17.067-7.637-17.067-17.067
		s7.637-17.067,17.067-17.067c9.429,0,17.067,7.637,17.067,17.067S180.096,332.804,170.667,332.804z M191.01,288.491
		c-2.014-1.536-4.198-2.842-6.502-3.891c7.842-12.578,8.602-28.322,1.997-41.591l-1.323-2.654
		c13.346,2.586,25.754,8.678,35.968,17.647l-4.045,12.109c-2.901,8.713-10.257,15.206-19.26,17.007L191.01,288.491z
		 M171.238,250.637c4.113,8.218,3.499,18.005-1.596,25.651l-3.874,5.811c-2.5,0.341-4.958,0.964-7.322,1.86
		c-3.345-14.447-13.952-26.129-28.006-30.857l-2.816-0.939c11.264-7.62,24.354-12.1,37.922-12.962L171.238,250.637z
		 M124.228,361.365c2.901-8.713,10.257-15.206,19.26-17.007l6.827-1.374c2.014,1.536,4.198,2.842,6.502,3.891
		c-7.842,12.578-8.602,28.322-1.997,41.591l1.323,2.654c-13.346-2.586-25.754-8.678-35.968-17.647L124.228,361.365z
		 M170.095,380.838c-4.113-8.218-3.499-18.005,1.596-25.651l3.874-5.811c2.5-0.341,4.958-0.964,7.322-1.86
		c3.345,14.447,13.952,26.129,28.006,30.857l2.816,0.939c-11.264,7.62-24.354,12.1-37.922,12.962L170.095,380.838z M112.922,265.263
		l12.109,4.036c8.713,2.901,15.206,10.257,17.007,19.26l1.374,6.827c-1.536,2.014-2.842,4.198-3.891,6.502
		c-12.578-7.834-28.322-8.593-41.591-1.997l-2.654,1.323C97.86,287.876,103.953,275.469,112.922,265.263L112.922,265.263z
		 M228.395,366.212l-12.109-4.036c-8.713-2.901-15.206-10.257-17.007-19.26l-1.374-6.827c1.536-2.014,2.85-4.198,3.9-6.511
		c12.561,7.893,28.322,8.653,41.583,2.005l2.654-1.323c-2.586,13.338-8.67,25.745-17.638,35.951L228.395,366.212L228.395,366.212z"
		/>
</g>
<g>
	<path style="fill:#FF5023;" d="M273.067,34.138c-4.71,0-8.533-3.823-8.533-8.533V8.538c0-4.71,3.823-8.533,8.533-8.533
		c4.71,0,8.533,3.823,8.533,8.533v17.067C281.6,30.315,277.777,34.138,273.067,34.138z"/>
	<path style="fill:#FF5023;" d="M209.067,51.29c-3.055,0-5.871-1.621-7.398-4.267l-8.533-14.788
		c-2.381-4.062-1.015-9.293,3.046-11.674c4.062-2.381,9.293-1.015,11.674,3.046c0.017,0.034,0.034,0.068,0.06,0.094l8.533,14.788
		c2.355,4.079,0.956,9.301-3.123,11.657C212.028,50.897,210.56,51.29,209.067,51.29z"/>
	<path style="fill:#FF5023;" d="M162.21,98.138c-1.502,0-2.97-0.393-4.267-1.143l-14.788-8.533
		c-4.062-2.381-5.427-7.612-3.046-11.674c2.364-4.028,7.518-5.41,11.58-3.106l14.788,8.533c4.079,2.355,5.478,7.578,3.123,11.657
		C168.073,96.508,165.257,98.138,162.21,98.138z"/>
	<path style="fill:#FF5023;" d="M383.923,98.138c-4.71,0-8.533-3.823-8.533-8.533c0-3.046,1.63-5.862,4.267-7.39l14.788-8.533
		c4.096-2.33,9.31-0.896,11.639,3.2c2.304,4.062,0.922,9.216-3.106,11.58l-14.788,8.533
		C386.893,97.745,385.425,98.138,383.923,98.138z"/>
	<path style="fill:#FF5023;" d="M337.067,51.29c-4.71-0.009-8.533-3.831-8.525-8.542c0-1.493,0.393-2.961,1.143-4.258l8.533-14.788
		c2.33-4.096,7.535-5.53,11.639-3.2c4.096,2.33,5.53,7.535,3.2,11.639c-0.017,0.034-0.034,0.068-0.06,0.102l-8.533,14.788
		C342.938,49.668,340.122,51.29,337.067,51.29z"/>
</g>
<path style="fill:#231F20;" d="M452.267,170.671h-69.726c9.907-60.459-31.078-117.504-91.537-127.411S173.5,74.338,163.593,134.797
	c-1.946,11.878-1.946,23.987,0,35.866H51.2v-42.667c0-14.14-11.46-25.6-25.6-25.6H0v17.067h25.6c4.71,0,8.533,3.823,8.533,8.533
	v136.533H17.067v17.067h17.067v8.533h-25.6v102.4h25.6v8.533H17.067v17.067h17.067v93.867H51.2v-93.858h25.6v42.667h17.067v34.133
	h51.2v-34.133h17.067v34.133h187.733v-34.133h102.4c32.973-0.034,59.699-26.761,59.733-59.733V230.404
	C511.966,197.431,485.239,170.705,452.267,170.671z M34.133,375.471H25.6v-68.267h8.533V375.471z M273.067,59.738
	c51.874,0.034,93.901,42.112,93.867,93.986c0,5.683-0.521,11.358-1.553,16.947h-41.114c-0.026-6.315-2.398-12.399-6.656-17.067
	c4.258-4.668,6.63-10.752,6.656-17.067v-17.067c0-14.14-11.46-25.6-25.6-25.6h-8.533V76.804h-17.067v17.067h-8.533V76.804h-17.067
	v17.067h-25.6v17.067h17.067v59.733h-58.18c-9.395-51.021,24.354-99.985,75.366-109.38
	C261.709,60.258,267.383,59.738,273.067,59.738z M298.667,145.071H256v-34.133h42.667c4.71,0,8.533,3.823,8.533,8.533v17.067
	C307.2,141.248,303.377,145.071,298.667,145.071z M307.2,170.671H256v-8.533h42.667C303.377,162.138,307.2,165.961,307.2,170.671z
	 M128,477.871h-17.067v-17.067H128V477.871z M196.267,477.871H179.2v-17.067h17.067V477.871z M230.4,477.871h-17.067v-17.067H230.4
	V477.871z M264.533,477.871h-17.067v-17.067h17.067V477.871z M298.667,477.871H281.6v-17.067h17.067V477.871z M332.8,477.871
	h-17.067v-17.067H332.8V477.871z M494.933,401.071c-0.026,23.552-19.115,42.641-42.667,42.667h-358.4v-8.533h130.842l34.133-25.6
	h28.45l34.133,25.6h108.109l48.017-42.667h17.382V401.071z M494.933,375.471H471.04l-48.017,42.667h-95.915l-34.133-25.6h-39.817
	l-34.133,25.6H93.867v-17.067H51.2V238.938h36.975l34.133-25.6h96.717l34.133,25.6h39.817l34.133-25.6h95.94l47.991,42.667h23.893
	V375.471z M494.933,238.938h-17.382l-48.017-42.667H321.425l-34.133,25.6h-28.45l-34.133-25.6H116.625l-34.133,25.6H51.2v-34.133
	h401.067c23.552,0.026,42.641,19.115,42.667,42.667V238.938z"/>
<g>
</g>
<g>
</g>
<g>
</g>
<g>
</g>
<g>
</g>
<g>
</g>
<g>
</g>
<g>
</g>
<g>
</g>
<g>
</g>
<g>
</g>
<g>
</g>
<g>
</g>
<g>
</g>
<g>
</g>
</svg>
